# xmcd
#
# Track frame offsets: 
#        150
#        14854
#        32033
#        48087
#        62266
#        75095
#        93174
#        104639
#        116513
#        130604
#        144813
#        159454
#        171722
#        188619
#        204663
#        219959
#        250488
#        269587
#        287014
#        305500
#        319361
#
# Disc length: 4406 seconds
#
# Revision: 0
# Processed by: cddbd v1.5.1PL0 Copyright (c) Steve Scherf et al.
# Submitted via: ExactAudioCopy v0.95a5
#
DISCID=27113415
DTITLE=Various Artist - American Country Music
DYEAR=1900
DGENRE=
TTITLE0=Country Road
TTITLE1=Jambalaya
TTITLE2=Scarborough Fair
TTITLE3=San Francisco
TTITLE4=500 Hundred Miles
TTITLE5=Lady
TTITLE6=Rose Rose I Love You
TTITLE7=Roses Are Red
TTITLE8=Green Sleeves
TTITLE9=Lemon Tree
TTITLE10=The Song of Eagle
TTITLE11=The End of the World
TTITLE12=Fever
TTITLE13=Leaving on a Jet Plane
TTITLE14=Lay Down Sally
TTITLE15=Sutter's Mill
TTITLE16=Islandsing Overme
TTITLE17=It Never Rains in Southern California
TTITLE18=Vincent
TTITLE19=Sweet Sweet Smile
TTITLE20=Rhythm of the Rain
EXTD=
EXTT0=
EXTT1=
EXTT2=
EXTT3=
EXTT4=
EXTT5=
EXTT6=
EXTT7=
EXTT8=
EXTT9=
EXTT10=
EXTT11=
EXTT12=
EXTT13=
EXTT14=
EXTT15=
EXTT16=
EXTT17=
EXTT18=
EXTT19=
EXTT20=
PLAYORDER=
